<svg xmlns="http://www.w3.org/2000/svg" width="900" height="1080" viewBox="0 0 900 1080" role="img" aria-labelledby="title desc">
  <title id="title">工程研究控制台视觉</title>
  <desc id="desc">深色控制台风格的信息面板，展示 Java、Agent、Delivery 三条工程研究主线。</desc>
  <rect width="900" height="1080" rx="28" fill="#17231d"/>
  <rect x="56" y="58" width="788" height="964" rx="20" fill="#fbf7ed" opacity="0.08" stroke="#fbf7ed" stroke-opacity="0.16"/>
  <text x="92" y="126" fill="#d8ad66" font-family="Segoe UI, Microsoft YaHei, sans-serif" font-size="24" font-weight="800">ENGINEERING NOTES</text>
  <text x="92" y="178" fill="#fbf7ed" font-family="Segoe UI, Microsoft YaHei, sans-serif" font-size="54" font-weight="900">Yunxi Lab</text>
  <line x1="92" y1="226" x2="808" y2="226" stroke="#fbf7ed" stroke-opacity="0.18" stroke-width="2"/>
  <g font-family="Segoe UI, Microsoft YaHei, sans-serif">
    <rect x="92" y="286" width="716" height="146" rx="16" fill="#0f1713" stroke="#2f6f5e" stroke-width="2"/>
    <text x="128" y="342" fill="#fbf7ed" font-size="30" font-weight="900">Java Stability</text>
    <text x="128" y="386" fill="#d8cbb7" font-size="20">边界 · 事务 · 测试 · 可观测性</text>
    <path d="M610 356h120M610 386h78" stroke="#d8ad66" stroke-width="8" stroke-linecap="round"/>

    <rect x="92" y="482" width="716" height="146" rx="16" fill="#0f1713" stroke="#b8663b" stroke-width="2"/>
    <text x="128" y="538" fill="#fbf7ed" font-size="30" font-weight="900">Agent Engineering</text>
    <text x="128" y="582" fill="#d8cbb7" font-size="20">上下文 · 工具 · 权限 · 评测</text>
    <path d="M610 552h120M610 582h78" stroke="#b8663b" stroke-width="8" stroke-linecap="round"/>

    <rect x="92" y="678" width="716" height="146" rx="16" fill="#0f1713" stroke="#d8ad66" stroke-width="2"/>
    <text x="128" y="734" fill="#fbf7ed" font-size="30" font-weight="900">Delivery Loop</text>
    <text x="128" y="778" fill="#d8cbb7" font-size="20">计划 · 实现 · 验证 · 复盘</text>
    <path d="M610 748h120M610 778h78" stroke="#2f6f5e" stroke-width="8" stroke-linecap="round"/>
  </g>
  <circle cx="158" cy="916" r="18" fill="#2f6f5e"/>
  <circle cx="218" cy="916" r="18" fill="#b8663b"/>
  <circle cx="278" cy="916" r="18" fill="#d8ad66"/>
  <text x="342" y="925" fill="#fbf7ed" fill-opacity="0.72" font-family="Segoe UI, Microsoft YaHei, sans-serif" font-size="24">Build systems that can explain themselves.</text>
</svg>
